<svg xmlns="http://www.w3.org/2000/svg" width="206" height="207" viewBox="0 0 206 207">
  <defs>
    <linearGradient id="empty-state-a" x1="-.107%" x2="91.757%" y1="37.097%" y2="63.236%">
      <stop offset="11%" stop-color="#FF6300"/>
      <stop offset="100%" stop-color="#FF8F47"/>
    </linearGradient>
  </defs>
  <g fill="none" fill-rule="evenodd">
    <path fill="#EFEFF0" d="M154.618366,163.774358 C130.074906,157.044028 104.633514,161.11353 79.1921229,162.365685 C53.7507314,163.617839 17.7337026,168.000379 7.05829512,175.669825 C4.46427089,177.548056 1.57093616,179.426288 0.473464368,182.400154 C-1.2226284,186.939214 1.87024665,192.10435 6.06059349,194.765178 C10.3507105,197.269487 15.4389888,197.739045 20.3277268,198.208603 C43.1750941,200.086834 66.1222316,202.121585 88.9695989,203.999817 C93.958107,204.469375 98.9466152,204.782413 103.935123,205.251971 C116.506164,206.347606 129.176975,207.443241 141.748015,206.817164 C161.602277,206.034568 181.257,201.338989 199.215629,193.043466 C202.408274,191.634793 206,189.287003 206,185.843579 C206,182.556673 202.707585,180.365403 199.71448,178.95673 C185.646887,171.756842 170.382052,166.748225 154.618366,164.087397"/>
    <polygon fill="#4BC3C9" points="57 38 56.867 28 49.133 28 49 38"/>
    <path fill="#4BC3C9" d="M42.2934937,18.7780201 C41.5688179,15.0332289 42.414273,11.0543883 42.414273,11.0543883 C44.105183,6.13934993 50.1441475,4.5010038 50.1441475,4.5010038 C56.9077876,2.62860823 60.6519456,6.60744882 60.6519456,6.60744882 C60.6519456,6.60744882 63.5506485,8.94794329 65,20.4163662 L62.7051935,21.2355392 C62.7051935,21.2355392 61.4974006,25.6824787 59.9272699,26.852726 C53.1636297,32.2358632 43.259728,26.7357012 42.2934937,18.7780201 L42.2934937,18.7780201 Z"/>
    <path fill="#172241" d="M40.8172405,68 L61.2436532,114.470588 C61.2436532,114.823529 61.1269309,115.176471 61.0102085,115.411765 L37.0821251,158.235294 C37.0821251,158.235294 31.3627295,163.294118 33.463732,164.588235 L40.9339629,169.058824 L42.1011865,169.647059 C42.6847983,169.882353 43.2684101,170 43.8520218,170 L47.470415,170 C48.2874715,170 48.7543609,168.941176 48.1707491,168.352941 C47.7038597,167.882353 46.7700808,167.764706 45.4861349,167.294118 C43.1516877,166.588235 42.6847983,160.823529 42.6847983,160.823529 L69.5309407,131.529412 C69.5309407,131.529412 79.4523411,122.941176 77.8182281,115.176471 L70.5814419,68.3529412 L39.6500169,68.3529412"/>
    <path fill="#1E3363" d="M52.7237224,173 L49.8063568,120.647638 C49.8063568,120.647638 39.7706193,87.91264 40.0040085,69.1225147 C40.2373978,44.305368 40.0040085,68.767984 40.2373978,68.767984 L62.9928491,68.767984 C63.1095438,68.767984 65.9102147,116.629624 65.9102147,116.629624 C66.0269093,116.984155 65.7935201,116.156916 65.9102147,116.629624 C66.8437717,120.647638 60.1921782,151.609983 60.0754836,172.409116"/>
    <path fill="#172241" d="M45.9077362,6.58037047 C38.6555857,10.1577168 39.5016699,17.0739198 41.0729692,21.3667355 C42.0399226,24.2286126 46.3912129,23.0361638 45.6659978,20.0550418 L45.6659978,19.9357969 C44.5781752,15.6429813 46.9955587,14.3312876 47.9625121,13.973553 C48.2042505,13.8543081 48.4459888,13.8543081 48.6877272,13.8543081 C50.0172881,13.8543081 56.181616,13.4965735 57.3903078,11.1116759 C58.7198687,8.36904366 58.7198687,6.34188071 62.9502898,6.34188071 L63.796374,6.34188071 C66.4554959,6.10339095 66.8181034,2.52604458 64.2798507,1.69133043 L61.6207289,0.856616274 C61.6207289,0.856616274 52.3138024,-1.76677107 50.5007648,2.16830994 C48.6877272,6.10339095 46.1494745,6.46112559 45.9077362,6.58037047 Z"/>
    <path fill="#162140" d="M60.1725732,171 C60.1725732,171 62.0585516,175.444444 65.9483821,176.079365 C67.3628659,176.333333 68.1879815,176.714286 68.6594761,177.222222 C69.366718,177.857143 68.8952234,179 67.9522342,179 L53.1001541,179 C50.6248074,179 53.1001541,171.126984 53.1001541,171.126984 L60.1725732,171.126984 L60.1725732,171 Z"/>
    <path fill="#4BC3C9" d="M117.350974,64.0861841 C110.970161,62.5881906 93.2456818,62.7034209 86.746706,62.0120393 C85.0924212,61.896809 84.2652788,61.2054274 82.9654837,59.4769734 L69.4948792,40.3487493 C68.7859,39.3116769 67.7224313,38.5050651 66.4226361,38.1593743 C63.8230457,37.4679927 59.2146811,36.2004598 56.8514171,36.0852295 C56.8514171,36.0852295 44.3261182,35.5090782 37,37.3527624 L37,47.8387166 L39.1269375,44.8427297 L38.8906112,68.810625 L64.4138617,68.810625 L64.1775353,53.6002299 C65.0046777,54.8677628 68.4314104,50.604243 69.2585528,51.6413154 C79.7750774,65.0080262 86.2740532,71 86.2740532,71 L114.160568,69.1563157 C114.160568,69.1563157 118.414443,69.0410855 119.950564,66.0450986 C120.423217,65.2384867 117.350974,64.0861841 117.350974,64.0861841 L117.350974,64.0861841 Z"/>
    <path fill="#FF6300" d="M113.155459,62.406408 C109.514994,62.0535537 96.9495201,61.3478452 91.7824092,61.3478452 C89.316288,61.3478452 88.963985,59.9364281 88.4942477,59.2307195 L73.8149552,38.2946996 C73.1103491,37.3537548 72.0534401,36.5304282 70.996531,36.1775739 C68.1781069,35.3542473 46.5701884,34.0604483 37.6451785,36.0599559 C19.2079872,39.5884985 28.3678657,73.8153627 37.8800472,51.938398 C38.7020876,50.9974533 39.171825,50.2917447 39.2892593,50.2917447 L38.3497846,67.2287497 C38.3497846,68.0520763 38.9369563,68.7577848 39.7589967,68.7577848 L71.4662684,68.7577848 C72.1708744,68.7577848 72.5231774,68.2873125 72.2883088,67.4639858 L70.7616624,56.1726492 C73.9323895,59.9364281 76.163642,69.5811115 82.5050963,71.4630009 C104.582752,78.167232 113.272893,69.4634934 113.272893,69.4634934 L113.977499,63.5825889 C114.094934,62.9944984 113.742631,62.5240261 113.155459,62.406408 L113.155459,62.406408 Z"/>
    <polygon fill="#ECF4FB" points="123 37.934 100.325 33 94 64.557 113.333 68"/>
    <path fill="#4BC3C9" fill-rule="nonzero" d="M115.223235,66 C114.986333,66 114.867882,65.7641819 114.749431,65.6462728 C113.920273,64.3492731 113.091116,62.9343644 112.972665,61.2836375 C112.972665,60.9299103 113.091116,60.5761832 113.328018,60.4582741 C113.56492,60.340365 113.801822,60.5761832 114.038724,60.6940922 C114.512528,61.0478194 114.867882,61.4015466 115.341686,61.7552738 C115.81549,61.9910919 116.407745,62.22691 117,62.109001 M65,53.6195485 L68.0797267,51.6150945 C68.1981777,51.2613673 68.5535308,48.6673679 69.738041,48.0778226 C71.7517084,47.1345501 75.7790433,46.7808229 76.2528474,47.1345501 C76.7266515,47.4882773 77.0820046,53.3837304 75.4236902,54.2090938 C74.7129841,54.7986391 72.3439636,54.6807301 71.5148064,54.7986391 L68.0797267,57.0389113"/>
    <polygon fill="#172241" points="80 51.474 78.945 50.316 65.703 46 65 47.789 78.359 52"/>
    <path fill="#4BC3C9" d="M64,54.5938908 L67.1727855,52.5972061 C67.2948158,52.24485 67.6609064,49.6609051 68.8812085,49.0736449 C70.9557222,48.1340286 75.1047494,47.7816725 75.5928703,48.1340286 C76.0809911,48.4863847 76.4470818,54.3589867 74.7386588,55.181151 C74.0064775,55.7684112 71.5658732,55.6509592 70.7116617,55.7684112 L67.1727855,58"/>
    <path fill="url(#empty-state-a)" d="M38.7256368,47 C38.7256368,47 45.9955317,62.3782609 51.506581,62.1434783 L62.645936,54.1608696 C63.4667306,53.6913043 64.4047815,53.6913043 65.2255761,54.1608696 C66.2808834,54.8652174 68.7432671,58.973913 68.9777799,60.5 C69.0950362,61.2043478 68.7432671,62.026087 68.0397289,62.4956522 C68.0397289,62.4956522 57.3693994,74 47.4026081,74 C35.7942276,74 27.7035382,64.9608696 27,52.0478261 L38.7256368,47 L38.7256368,47 Z"/>
    <path fill="#4BC3C9" d="M64,55 L67,58"/>
    <g transform="translate(96 8)">
      <path fill="#4BC3C9" d="M7.8515625,34.2 C3.28125,30.2178082 4.3359375,33.6143836 3.75,33.7315068 C2.109375,34.0828767 1.0546875,34.7856164 0.703125,35.7226027 C0.703125,35.7226027 -0.234375,37.5965753 1.0546875,40.5246575 C1.7578125,42.1643836 4.453125,43.4527397 5.7421875,43.6869863 C7.1484375,43.9212329 8.4375,44.2726027 9.7265625,44.8582192 L11.71875,47.0835616 L15.8203125,42.2815068 C13.9453125,41.3445205 9.4921875,35.4883562 7.8515625,34.2 L7.8515625,34.2 Z"/>
      <path fill="#304575" d="M70.1953125,144.99863 L70.078125,163.15274 C70.546875,164.675342 72.0703125,169.594521 70.1953125,169.711644 L56.015625,170.180137 C55.1953125,170.180137 54.7265625,169.243151 55.3125,168.657534 C55.78125,168.189041 56.6015625,167.837671 57.890625,167.603425 C61.5234375,166.900685 63.1640625,163.15274 63.28125,163.035616 C63.28125,163.035616 63.984375,154.836986 62.6953125,146.286986 L70.1953125,144.99863 L70.1953125,144.99863 Z"/>
      <path fill="#162140" fill-rule="nonzero" d="M70.8984375,165.729452 C71.3671875,167.603425 71.484375,169.594521 70.1953125,169.594521 L56.015625,170.063014 C55.1953125,170.063014 54.7265625,169.126027 55.3125,168.540411 C55.78125,168.071918 56.6015625,167.720548 57.890625,167.486301 C59.0625,167.252055 60.1171875,166.666438 60.8203125,166.080822 M60.3515625,0.468493151 C60.3515625,0.468493151 52.96875,-0.936986301 50.2734375,4.56780822 C50.2734375,4.56780822 46.875,14.0547945 53.4375,17.1 L60.3515625,0.468493151"/>
      <path fill="#4BC3C9" d="M53.90625,36.0739726 L54.4921875,23.5417808 C46.9921875,22.1363014 46.40625,18.9739726 46.171875,17.2171233 C45.9375,15.460274 48.1640625,11.1267123 48.1640625,11.1267123 L47.109375,9.25273973 C55.6640625,1.17123288 58.59375,1.99109589 58.59375,1.99109589 C58.59375,1.99109589 63.6328125,1.28835616 67.03125,6.6760274 C67.03125,6.6760274 70.6640625,10.8924658 68.4375,15.9287671 C68.4375,15.9287671 66.2109375,19.559589 63.3984375,21.9020548 L63.515625,25.5328767 L63.515625,36.1910959 L53.90625,36.1910959 L53.90625,36.0739726 Z"/>
      <path fill="#304575" d="M42.1875,151.089041 C43.828125,158.233562 44.1796875,162.918493 44.1796875,162.918493 C44.1796875,163.035616 42.5390625,166.783562 38.7890625,167.486301 C37.5,167.720548 36.6796875,168.071918 36.2109375,168.540411 C35.625,169.126027 36.09375,170.063014 36.9140625,170.063014 L51.09375,169.594521 C53.0859375,169.477397 51.5625,164.558219 50.9765625,163.035616 L49.8046875,144.29589 L42.1875,151.089041 L42.1875,151.089041 Z"/>
      <path fill="#162140" d="M51.796875,165.729452 C52.265625,167.603425 52.3828125,169.594521 51.09375,169.594521 L36.9140625,170.063014 C36.09375,170.063014 35.625,169.126027 36.2109375,168.540411 C36.6796875,168.071918 37.5,167.720548 38.7890625,167.486301 C39.9609375,167.252055 41.015625,166.666438 41.71875,166.080822"/>
      <path fill="#172241" d="M61.640625,159.170548 C59.4140625,146.40411 51.328125,67.8143836 51.328125,67.8143836 C59.765625,69.219863 71.6015625,71.2109589 71.6015625,71.2109589 C71.71875,71.2109589 70.1953125,159.287671 70.1953125,159.287671 L61.640625,159.287671 L61.640625,159.170548 Z"/>
      <path fill="#1E3363" d="M40.3125,159.404795 C38.5546875,146.638356 37.3828125,119.7 37.265625,116.889041 L37.265625,115.717808 L45.234375,66.760274 C45.234375,66.6431507 45.3515625,66.6431507 45.3515625,66.5260274 L71.6015625,70.859589 C71.71875,70.859589 55.1953125,106.699315 51.6796875,115.015068 C51.2109375,116.069178 51.09375,117.123288 51.09375,118.177397 C51.5625,126.258904 50.625,159.287671 50.625,159.287671 L40.3125,159.287671 L40.3125,159.404795 Z"/>
      <path fill="#006FDE" d="M36.2109375,59.9671233 C25.4296875,61.8410959 11.484375,49.7773973 9.4921875,48.4890411 C7.6171875,47.2006849 8.203125,45.3267123 8.203125,45.3267123 C8.203125,45.3267123 11.3671875,40.8760274 12.65625,39.5876712 C13.9453125,38.2993151 15.1171875,39.1191781 15.1171875,39.1191781 C15.1171875,39.1191781 28.4765625,50.3630137 37.734375,45.0924658 C43.59375,41.8130137 48.984375,33.380137 50.7421875,33.1458904 C56.015625,32.4431507 63.28125,31.740411 68.7890625,32.2089041 C69.84375,32.3260274 70.6640625,33.0287671 70.78125,34.0828767 C71.1328125,35.7226027 74.0625,70.039726 74.0625,70.039726 C74.0625,70.859589 73.4765625,71.4452055 72.65625,71.4452055 L45.703125,70.2739726 C45,70.2739726 44.4140625,69.6883562 44.4140625,68.9856164 L46.171875,56.1020548 C46.171875,56.1020548 46.5234375,58.210274 36.2109375,59.9671233 L36.2109375,59.9671233 Z"/>
      <path fill="#172241" d="M59.4140625,19.9109589 C62.578125,26.0013699 74.8828125,23.4246575 73.828125,11.009589 C73.125,3.63082192 65.9765625,-1.40547945 56.484375,1.05410959 C56.484375,1.05410959 55.78125,12.8835616 59.4140625,19.9109589 Z"/>
    </g>
    <path fill="#172241" d="M164,11.1256595 C164.116438,10.8886455 164.116438,10.2961106 164.232877,10.0590967 C166.212329,7.45194313 177.157534,4.37076166 175.527397,21.1987528 C174.945205,26.8870878 177.273973,36.7231671 181,37.9082369 C174.479452,38.9747997 168.308219,30.4422972 166.910959,27.9536506 C165.513699,25.465004 165.280822,21.3172598 166.09589,18.5915992"/>
  </g>
</svg>
