<svg xmlns="http://www.w3.org/2000/svg" width="209" height="223" viewBox="0 0 209 223">
  <defs>
    <linearGradient id="no-results-a" x1=".135%" x2="100.244%" y1="50.003%" y2="50.003%">
      <stop offset="11%" stop-color="#FC6320"/>
      <stop offset="100%" stop-color="#FD9256"/>
    </linearGradient>
    <linearGradient id="no-results-b" x1="-.025%" x2="99.946%" y1="50.016%" y2="50.016%">
      <stop offset="0%" stop-color="#1D2A40"/>
      <stop offset="100%" stop-color="#1F3462"/>
    </linearGradient>
  </defs>
  <g fill="none" fill-rule="evenodd">
    <path fill="#EFEFF0" d="M156.654026,178.338998 C131.847061,171.448386 106.05656,167.073394 80.266059,168.167142 C54.4755581,169.26089 28.5757754,176.370251 7.15654579,190.698349 C4.4245012,192.557721 1.58317483,194.635842 0.490356994,197.698336 C-1.25815154,202.401452 1.91102018,207.760817 6.17300974,210.385812 C10.4349993,213.010808 15.6805249,213.448307 20.707487,213.885806 C43.8752251,215.854552 67.0429632,217.823298 90.3199831,219.90142 C95.3469451,220.338919 100.483189,220.776418 105.510151,221.213917 C118.29612,222.307665 131.082088,223.401413 143.868057,222.854539 C163.975905,221.979541 183.86519,217.16705 202.115248,208.635816 C205.393701,207.104569 209,204.807698 209,201.19833 C209,197.807711 205.612265,195.620215 202.661657,193.979593 C188.345743,186.542107 172.937011,181.292117 156.981871,178.667122"/>
    <path fill="#162140" d="M100.561235,24.5915293 C107.574554,20.4056127 104.177478,10.1611326 104.177478,10.1611326 C101.4379,3.88225765 93,5.09397035 93,5.09397035 C93,5.09397035 94.4245805,28.3368231 100.561235,24.5915293 Z"/>
    <path fill="#4BC3C9" d="M97.7563859,46.054208 L97.9741379,30.0554735 C106.466467,28.5420797 108.535112,26.3800886 108.970616,24.326197 C109.297244,22.2723054 106.793095,17.4078254 106.793095,17.4078254 L107.990732,15.2458342 C98.300766,6.16547142 94.9256094,7.03026788 94.9256094,7.03026788 C94.9256094,7.03026788 89.2640565,6.27357098 85.3445199,12.3271462 C85.3445199,12.3271462 81.3161072,17.0835267 83.8202556,22.8128032 C83.8202556,22.8128032 84.8001398,25.5152921 88.0664203,28.0015819 L88.5019244,48 L97.7563859,46.054208 Z"/>
    <path fill="#162140" fill-rule="nonzero" d="M119.958882,17.5704643 L118.31418,13.3824912 L118.643121,12.0938841 C118.643121,11.9865002 118.643121,11.8791162 118.533474,11.7717323 L116.450185,8.8723663 L116.779125,8.55021453 L116.888772,8.4428306 C117.437006,7.04683956 116.998419,5.1139289 115.463363,3.07363431 C113.818661,0.711187939 111.735372,-0.470035245 109.981023,0.17426831 C109.981023,0.17426831 109.871376,0.17426831 109.871376,0.281652236 L108.117027,1.57025935 L108.00738,1.67764327 C107.239852,2.2145629 106.910912,3.18101823 107.020559,4.46962534 C107.239852,5.43608068 107.788086,6.72468779 108.555614,7.90591097 C109.981023,9.94620556 111.845018,11.1274287 113.270427,11.1274287 C113.709014,11.1274287 114.147601,11.0200448 114.476542,10.805277 C114.586189,10.805277 114.586189,10.697893 114.695836,10.5905091 L119.081708,17.8926161 C119.191355,18 118.643121,16.8187768 118.862414,16.8187768 C118.972061,16.8187768 119.629942,18 119.629942,18 C119.958882,18 120.068529,17.7852321 119.958882,17.5704643 L119.958882,17.5704643 Z M109.323142,7.47637527 C108.555614,6.40253601 108.117027,5.22131282 108.00738,4.14747357 C107.897733,3.18101823 108.117027,2.53671468 108.555614,2.2145629 C108.774908,2.10717898 108.994201,1.99979505 109.323142,1.99979505 C109.761729,1.99979505 110.200316,2.10717898 110.638904,2.42933075 C111.625725,2.96625038 112.502899,3.82532179 113.270427,4.89916105 C114.037955,5.97300031 114.476542,7.15422349 114.586189,8.22806275 C114.695836,9.19451808 114.476542,9.83882164 114.037955,10.1609734 C112.941487,10.805277 110.858197,9.62405378 109.323142,7.47637527 L109.323142,7.47637527 Z"/>
    <path fill="#4BC3C9" d="M122.644885,33 L128,29.4469535 L127.20243,28.0035283 C127.088491,26.6711359 127.20243,25.2277107 127.430307,23.8953183 C127.658184,22.5629258 127.430307,19.5650428 126.063043,18.3436831 C123.670332,16.2340617 121.619437,16.4561271 121.619437,16.4561271 C121.39156,16.4561271 119.910358,16.7892252 119.568542,15.1237346 C119.340665,14.1244403 118.201279,11.7927535 117.517647,12.0148189 C116.606138,12.347917 117.175831,14.1244403 117.175831,14.1244403 L117.859463,19.4540101 C117.859463,19.4540101 116.720077,21.1195007 117.859463,22.8960239 C118.998849,24.6725472 122.303069,30.8903786 122.644885,33"/>
    <path fill="url(#no-results-a)" d="M102,45.601553 C102,45.601553 120.867491,51.6843603 125.557099,45.1670668 C125.993342,44.5153375 126.102402,43.646365 125.884281,42.8860141 L123.266825,33.5445601 C122.939644,32.4583445 123.375886,31.2635074 124.357432,30.611778 C125.66616,29.634184 130.901071,27.8962391 133.082283,28.0048606 C134.17289,28.1134822 135.154436,28.8738331 135.481618,29.8514271 L139.625922,41.9084201 C139.625922,42.0170416 140.389346,46.9050117 139.734983,49.1860645 C137.226588,58.63614 118.577218,65.6965413 107.562093,67 L102.763425,45.4929315"/>
    <path fill="#162140" d="M118.762578,196.35 C119.095655,195.916667 119.095655,195.266667 118.651553,194.833333 C117.319244,193.425 111.101804,192.991667 110.102572,192.233333 L109.991546,192.233333 C107.882058,191.258333 106.993852,190.175 106.993852,190.066667 C106.993852,190.066667 106.216672,178.8 107.326929,171 L100.221283,171 L99.9992315,189.091667 C99.77718,189.741667 99.4441029,191.041667 99.2220514,192.341667 L99.2220514,192.45 C99.2220514,192.666667 99.2220514,192.775 99.1110257,192.991667 L99.1110257,193.1 C99.1110257,193.316667 99.1110257,193.425 99,193.641667 L99,195.483333 C99,195.591667 99,195.7 99.1110257,195.916667 L99.1110257,196.025 C99.1110257,196.133333 99.2220514,196.241667 99.2220514,196.35 L99.2220514,196.458333 C99.3330772,196.566667 99.3330772,196.675 99.4441029,196.675 C99.5551286,196.783333 99.6661543,196.783333 99.77718,196.891667 L99.8882058,196.891667 C99.9992315,196.891667 100.110257,197 100.221283,197 L117.874373,196.566667 C118.318475,196.783333 118.540527,196.566667 118.762578,196.35 L118.762578,196.35 Z"/>
    <path fill="#162140" d="M99.6576948,186.011705 C98.4514505,184.709654 93.4071566,185.577688 91.8719367,185.252175 C91.7622781,183.08209 91.6526196,173.859229 92.5298881,168 L85.2924228,168 C85.2924228,168 84.6344715,184.926662 85.2924228,191.111404 C85.4020814,191.76243 85.9503742,192.087943 86.6083256,191.979438 L98.9997434,187.964781 C99.9866704,187.964781 100.315646,186.771235 99.6576948,186.011705 L99.6576948,186.011705 Z"/>
    <path fill="url(#no-results-b)" d="M85.2896114,188 C85.2896114,188 78.2952604,76.5235804 82.1690548,75.7555342 C82.1690548,75.7555342 90.9926977,74.6583253 101,74 C101,74 94.2208597,169.786333 91.5307247,185.586141 L85.2896114,188 Z"/>
    <path fill="#1E3363" d="M98.7753304,190.343545 L106.704846,190.124726 C106.704846,190.124726 108.356828,127.54267 111,92.8599562 C100.757709,93.4070022 86,91 86,91 C88.2026432,108.724289 98.7753304,191 98.7753304,191"/>
    <path fill="#FF6300" d="M112.468085,96 C113.343465,96 114,95.3408072 114,94.4618834 L105.355623,44.1434978 C105.355623,44.1434978 92.1155015,43.7040359 85.331307,44.3632287 C84.1276596,44.3632287 78,93.4730942 78,93.4730942 C78,94.4618834 79.5319149,96 80.5167173,96"/>
    <g transform="translate(69 4)">
      <path fill="#1E3363" d="M29.6727273,36.8648649 C42.7636364,29.5135135 29.2363636,18.0540541 30.2181818,17.5135135 C38.0727273,13.1891892 32.6181818,2.37837838 32.6181818,2.37837838 C22.4727273,-2.59459459 12.2181818,4.32432432 11.2363636,12.6486486 C10.8,16.3243243 9.38181818,18.9189189 6.98181818,21.7297297 C6,22.9189189 3.49090909,24.4324324 0.763636364,26.0540541 C0.763636364,26.0540541 12.8727273,46.2702703 29.6727273,36.8648649 Z"/>
      <polygon fill="#FFF" points="17.564 3.459 26.727 22.378 28.691 21.622 19.527 1.946"/>
      <path fill="#FFF" d="M26.8363636,18.1621622 L29.4545455,23.1351351 C29.4545455,23.2432432 29.8909091,23.6756757 30.4363636,23.3513514 C31.3090909,22.8108108 32.2909091,22.1621622 33.0545455,21.7297297 C33.4909091,21.5135135 34.4727273,22.1621622 34.6909091,22.2702703 L34.8,22.3783784 L34.8,22.7027027 L34.6909091,22.8108108 C33.1636364,23.6756757 31.9636364,24.4324324 31.3090909,24.8648649 C30.9818182,25.0810811 30.5454545,25.1891892 30.2181818,25.1891892 L30.1090909,25.1891892 C29.2363636,25.1891892 28.4727273,24.6486486 28.1454545,24.1081081 L25.5272727,19.027027 L26.8363636,18.1621622 L26.8363636,18.1621622 Z"/>
      <ellipse cx="25.745" cy="18.703" fill="#FFF" rx="3.927" ry="3.892"/>
    </g>
  </g>
</svg>
