<svg xmlns="http://www.w3.org/2000/svg" width="185" height="259" viewBox="0 0 185 259">
  <defs>
    <linearGradient id="whitelisted-a" x1="50.007%" x2="50.007%" y1="100.025%" y2="-14.554%">
      <stop offset="18.8%" stop-color="#006FDE"/>
      <stop offset="19.1%" stop-color="#0270DE"/>
      <stop offset="28.7%" stop-color="#338CE6"/>
      <stop offset="37.2%" stop-color="#56A1EC"/>
      <stop offset="44.1%" stop-color="#6CAEEF"/>
      <stop offset="48.6%" stop-color="#74B2F1"/>
    </linearGradient>
  </defs>
  <g fill="none" fill-rule="evenodd">
    <path fill="#EFEFF0" d="M147.213086,226.51903 C129.251871,221.445735 110.607012,218.314072 91.962153,219.128305 C73.3172938,220.00517 54.6724347,225.078465 39.1350521,235.475586 C37.1462671,236.790885 35.1574822,238.356716 34.3495383,240.611514 C33.1065477,244.056343 35.3439308,247.939605 38.4514073,249.881236 C41.5588838,251.822867 45.3500052,252.136034 48.9546779,252.4492 C65.7350511,253.889765 82.5154244,255.33033 99.233648,256.770895 L110.234115,257.710394 C119.432245,258.524626 128.692525,259.276225 137.952805,258.900426 C152.495796,258.274093 166.852337,254.766631 180.028038,248.565938 C182.38972,247.438539 185,245.747441 185,243.179477 C185,240.73678 182.576168,239.108315 180.400935,237.980917 C170.084113,232.531823 158.897197,228.773827 147.399534,226.832196"/>
    <path fill="#1E3363" d="M75.1,17.8 C74.3,8.2 65.1,0 54.8,0 C44,0 34.4,9 34.4,19.2 L34.4,47.1 C34.4,48.5 35.5,49.6 36.9,49.6 C38.3,49.6 39.4,48.5 39.4,47.1 L39.4,19.2 C39.4,11.6 46.6,4.9 54.9,4.9 C63.1,4.9 70.4,11.6 70.4,19.2 L70.4,45 C70.4,46.4 71.5,47.5 72.9,47.5 C74.3,47.5 75.4,46.4 75.4,45 L75.4,18.4 C75.1,18.2 75.1,18 75.1,17.8 L75.1,17.8 Z"/>
    <polygon fill="#006FDE" points="18.1 44.5 93.3 44.5 93.3 136.3 18.1 136.3"/>
    <circle cx="55.5" cy="100.3" r="55.4" fill="#006FDE"/>
    <path fill="url(#whitelisted-a)" d="M92.4,59 L18.6,59 C7.3,69.1 0.1,83.9 0.1,100.3 C0.1,130.9 24.9,155.7 55.5,155.7 C86.1,155.7 110.9,130.9 110.9,100.3 C110.9,83.9 103.8,69.1 92.4,59 Z" opacity=".6"/>
    <path fill="#172241" d="M68.3,95.5 C70.1,89 66.3,82.3 59.9,80.5 C53.4,78.7 46.7,82.5 44.9,88.9 C43.6,93.4 45.1,98.1 48.3,101.1 L46.7,119.3 L65.4,119.5 L64.7,101.3 C66.3,99.8 67.6,97.8 68.3,95.5 L68.3,95.5 Z"/>
    <path fill="#E9EEF5" fill-rule="nonzero" d="M65.4,121.6 L46.7,121.4 C46.1,121.4 45.6,121.1 45.2,120.7 C44.8,120.3 44.6,119.7 44.7,119.1 L46.2,101.8 C42.8,98.2 41.6,93.1 42.9,88.3 C45,80.7 52.9,76.3 60.5,78.4 C68.1,80.5 72.5,88.4 70.4,96 C69.8,98.3 68.5,100.4 66.9,102.1 L67.6,119.4 C67.6,120 67.4,120.5 67,120.9 C66.5,121.4 65.9,121.6 65.4,121.6 L65.4,121.6 Z M49,117.3 L63.2,117.4 L62.5,101.4 C62.5,100.8 62.7,100.2 63.2,99.7 C64.6,98.4 65.7,96.8 66.2,94.9 C67.7,89.6 64.6,84 59.2,82.5 C53.9,81 48.3,84.1 46.8,89.5 C45.8,93.1 46.9,97 49.6,99.6 C50.1,100 50.3,100.7 50.3,101.3 L49,117.3 L49,117.3 Z"/>
    <g transform="translate(49 83)">
      <polygon fill="#4BC3C9" points="55.5 34.4 55.5 25.6 61.4 25.5 61.6 34.3"/>
      <path fill="#172241" d="M51.5,55 C51.5,55 53.2,104.4 53.3,110.7 C53.4,118.9 59.9,122.1 59.9,122.1 L83.7,141.4 C83.7,141.4 81.8,146.4 79.8,147.1 C78.6,147.5 77.9,147.6 77.4,148 C76.8,148.5 77.2,149.4 78,149.4 L81.2,149.4 C81.7,149.4 82.2,149.3 82.7,149 L83.7,148.5 L90.9,144.5 C92.7,143.4 87.6,139 87.6,139 L68.2,114.7 C68,114.5 67.9,114.2 67.9,113.9 L74.8,54.5 L51.5,55 L51.5,55 Z"/>
      <path fill="#1E3363" d="M33.6,143.7 L36.4,105.8 L74.7,54.9 C74.8,54.8 74.7,54.6 74.5,54.6 L48.7,54.9 C48.6,54.9 48.5,55 48.5,55 L22.9,101.4 C22.8,101.8 22.7,102.1 22.6,102.5 C21.8,106 26.9,125.2 27.3,143.4"/>
      <path fill="#162140" d="M33.5,143.2 C33.5,143.2 35.7,149.6 33.6,149.6 L20.5,149.7 C19.7,149.7 19.3,148.8 19.9,148.3 C20.3,147.9 21.1,147.6 22.3,147.4 C25.7,146.9 27.3,143.3 27.3,143.3"/>
      <path fill="#4BC3C9" d="M62,25.7 C55.1,26.8 53,25.1 52.1,23.7 C51.2,22.3 51.4,17.8 51.4,17.8 L49.7,16.6 C53.8,6.5 56.6,6 56.6,6 C56.6,6 60.6,3.5 65.5,6.7 C65.5,6.7 70.1,8.8 70.2,14 C70.2,14 69.8,17.9 68.3,20.9 C68.2,21 64.9,25.2 62,25.7 Z"/>
      <path fill="#FFCC4C" d="M66.8,32.1 C65.3,32.1 64.5,31.1 64.4,29.9 C58.1,30.3 52.9,30.4 51.9,30.5 C50.7,30.6 46.3,50.8 46.3,50.8 L44.6,64.3 C44.6,64.9 45.1,65.4 45.8,65.4 L74.5,65.9 C75.2,65.9 76.4,64.7 76.3,64 C76.2,64.1 74.4,32 66.8,32.1 L66.8,32.1 Z"/>
      <path fill="#4BC3C9" d="M20.3,71.7 L19.6,77.5 L18,77.4 C16.8,77.9 15.7,78.5 14.7,79.3 C13.7,80.1 11.1,81.1 9.5,80.6 C6.8,79.6 0.7,77 0.6,76.4 C0.5,75.6 2.2,75.2 2.2,75.2 L6.8,73.5 C6.8,73.5 7.7,71.9 9.7,72 C11.7,72.1 18.5,72.4 20.3,71.7"/>
      <path fill="#FFCC4C" d="M44.1,72.3 L19.5,81.5 C18.5,81.3 17.7,80.5 17.4,79.5 C17,77.5 15.8,72.8 16.5,71.5 L35.8,61.5 C38.2,59.9 38.6,59.1 39,58.4 C41.3,54.3 44.3,40 47.5,38.6 C53,35.2 56,41.3 56,41.3 C58.6,53.6 52.3,68.9 44.1,72.3 Z"/>
      <path fill="#162140" d="M64.9,6.3 L64.9,5.8 C64.9,3 67.1,0.8 69.8,0.8 C72.6,0.8 74.8,3 74.8,5.7 C74.8,8.4 72.7,10.6 70,10.7 C72.4,16.1 68.3,23.7 65,24.3 C61.4,25 63.1,20.5 63.1,20.5 C63.1,20.5 65.4,16.7 62,15 C62,15 54.8,10.2 54,8 C52.9,4.4 59.9,4.3 64.9,6.3 L64.9,6.3 Z"/>
    </g>
  </g>
</svg>
